# xmcd
#
# Track frame offsets:
#       150
#       14059
#       24272
#       32335
#       46641
#       59583
#       73328
#       86926
#       96551
#       108172
#       123322
#       133054
#       147060
#       159974
#       171384
#       185341
#       199211
#       211229
#       224624
#
# Disc length: 3145 seconds
#
# Revision: 1
# Processed by: cddbd v1.5.1PL0 Copyright (c) Steve Scherf et al.
# Submitted via: MusiCat 1.1
#
DISCID=190c4713
DTITLE=Les Brown - Midnight Sun
DYEAR=2002
DGENRE=
TTITLE0=Begin The Beguine (Porter)
TTITLE1=From This Moment On (Porter)
TTITLE2=C.O.D. (Whiting)
TTITLE3=Midnight Sun (Burke)
TTITLE4=Something Wonderful Happens (Greer)
TTITLE5=Blue Skies (Berlin)
TTITLE6=The Shiniest Mouth In Town (Stone)
TTITLE7=My Baby Just Cares For Me (Donaldson - Kahn)
TTITLE8=No Other Love Have I (Rogers - Hammerstein II)
TTITLE9=That Old Black Magic (Arlen - Mercer)
TTITLE10=I Guess I'll HaveTo Change My Mind (Dietz - Schwartz)
TTITLE11=Perdido (Ellington - Tizol)
TTITLE12=Billboard March(Brown)
TTITLE13=Sugar (Mercer)
TTITLE14=How About You (Freed - Lane)
TTITLE15=Heat Wave (Berlin - Brown)
TTITLE16=Heat Wave (Brown)
TTITLE17=You're The Cream In My Coffee (Brown)
TTITLE18=The Moon Was Yellow (Brown)
EXTD=TIM The International Music Co. AG\n220395-203\nEAN code 4 011222 203953\
EXTD=n 
EXTT0=
EXTT1=
EXTT2=
EXTT3=
EXTT4=
EXTT5=
EXTT6=
EXTT7=
EXTT8=
EXTT9=
EXTT10=
EXTT11=
EXTT12=
EXTT13=
EXTT14=
EXTT15=
EXTT16=
EXTT17=
EXTT18=
PLAYORDER=
